# xmcd
#
# Track frame offsets: 
#        150
#        29279
#        45793
#        61675
#        84419
#        106160
#        132165
#        158333
#        176283
#        203482
#        219399
#
# Disc length: 3190 seconds
#
# Revision: 0
# Processed by: cddbd v1.5.2PL0 Copyright (c) Steve Scherf et al.
# Submitted via: ExactAudioCopy v0.95b4
#
DISCID=730c740b
DTITLE=Eric Johanson - Burn It Down
DYEAR=2017
DGENRE=Blues
TTITLE0=Burn It Down
TTITLE1=She's In Control
TTITLE2=Bang Against The Wall
TTITLE3=Graveyard Queen
TTITLE4=4 In The Morning
TTITLE5=Live Oak
TTITLE6=Till We Bleed
TTITLE7=The Fugitive
TTITLE8=Oh Louisiana
TTITLE9=So Cold
TTITLE10=On My Own
EXTD=
EXTT0=
EXTT1=
EXTT2=
EXTT3=
EXTT4=
EXTT5=
EXTT6=
EXTT7=
EXTT8=
EXTT9=
EXTT10=
PLAYORDER=
